<svg width="512" height="512" viewBox="0 0 512 512" fill="none" xmlns="http://www.w3.org/2000/svg">
<rect width="512" height="512" fill="#17CF62"/>
<rect x="192.455" y="109.769" width="129.983" height="129.982" rx="64.9908" fill="#FDFBFF"/>
<rect x="239.246" y="226.752" width="183.018" height="183.016" rx="91.5081" fill="#FDFBFF"/>
<path d="M109.268 137.656C109.268 133.741 112.442 130.566 116.358 130.566H148.263C169.799 130.566 187.257 148.025 187.257 169.561C187.257 191.097 169.799 208.555 148.263 208.555H116.358C112.442 208.555 109.268 205.381 109.268 201.465V137.656Z" fill="#FDFBFF"/>
<path d="M109.268 227.051C109.268 220.525 114.558 215.234 121.084 215.234H174.26C210.153 215.234 239.251 244.332 239.251 280.225C239.251 316.119 210.153 345.216 174.26 345.216H121.084C114.558 345.216 109.268 339.926 109.268 333.399V227.051Z" fill="#FDFBFF"/>
<path d="M222 120.5C224 119 228.102 116.04 228.5 116C233.5 115.5 311 170.5 317 177.5C319.831 180.803 321.062 182.181 321.493 182.619C321.495 182.579 321.498 182.539 321.5 182.5C321.705 182.773 321.792 182.923 321.493 182.619C321.321 185.492 320.894 191.106 320.5 191.5C320.1 191.9 255 146.667 222.5 124L222 120.5Z" fill="#FDFBFF"/>
</svg>
